<svg width="198" height="38" viewBox="0 0 198 38" fill="none" xmlns="http://www.w3.org/2000/svg">
<path d="M16.6526 0C15.9815 0 15.4772 0.352567 15.1435 1.0577L0.114484 36.4462C-0.153199 37.1474 0.0485333 37.5 0.71968 37.5H11.1748C11.908 37.5 12.4124 37.1474 12.6801 36.4462L17.3432 25.4817L17.3548 25.4507L21.1528 16.2646H21.1257L23.5387 10.4918H23.5426L27.8798 0H16.6526Z" fill="#F47521"/>
<path d="M48.6698 3.86662C48.6698 5.00568 48.3517 6.32684 47.7155 7.83397L43.3899 18.0236C42.7536 19.5268 42.1174 20.7589 41.4812 21.712C40.8449 22.665 40.1156 23.4167 39.2932 23.9707C38.4746 24.5247 37.5125 24.9083 36.403 25.1253C35.2973 25.3422 33.9589 25.4507 32.3838 25.4507H18.8833L22.6813 16.2646L25.071 10.4918L28.8341 1.38702C29.1794 0.546286 30.0018 0 30.9096 0H42.9398C46.7572 0 48.6698 1.29016 48.6698 3.86662Z" fill="#F47521"/>
<path d="M89.2797 0H78.8245C78.1534 0 77.6529 0.352567 77.3193 1.0577L67.0154 25.2996C66.5771 26.3728 65.9253 26.9075 65.0524 26.9075H56.1064C55.4702 26.9075 55.152 26.675 55.152 26.2062C55.152 26.0048 55.2335 25.7026 55.4042 25.2996L65.7081 1.0577C65.8089 0.786497 65.8594 0.588904 65.8594 0.453301C65.8594 0.1511 65.6072 0 65.1029 0H54.6477C53.9766 0 53.4761 0.352567 53.1425 1.0577L41.0269 29.6195C40.4916 30.8903 40.2239 32.0255 40.2239 33.0329C40.2239 34.5361 40.7825 35.6597 41.9076 36.3958C43.0287 37.1319 44.5456 37.5 46.4582 37.5H65.6576C67.4305 37.5 68.9319 37.3799 70.1539 37.1474C71.3798 36.915 72.4428 36.5043 73.3467 35.9193C74.2506 35.3342 75.0459 34.5284 75.7326 33.5094C76.4193 32.4866 77.0982 31.1925 77.7693 29.6195L89.8849 1.0577C89.9857 0.786497 90.0323 0.588904 90.0323 0.453301C90.0323 0.1511 89.784 0 89.2797 0Z" fill="#F47521"/>
<path d="M112.704 26.9075H95.9134L106.873 1.0577C107.141 0.352567 106.939 0 106.268 0H95.1104C94.4393 0 93.9388 0.352567 93.6013 1.0577L78.5722 36.4462C78.3046 37.1474 78.5063 37.5 79.1774 37.5H108.176C108.914 37.5 109.418 37.1474 109.686 36.4462L113.305 27.9613C113.573 27.26 113.371 26.9075 112.704 26.9075Z" fill="#F47521"/>
<path d="M160.1 0H136.78C134.902 0 133.32 0.112357 132.028 0.329321C130.74 0.546286 129.622 0.929848 128.688 1.48388C127.749 2.03404 126.942 2.79729 126.275 3.76589C125.603 4.73835 124.932 5.99365 124.261 7.53177L120.444 16.5164C119.939 17.7214 119.687 18.7752 119.687 19.6779C119.687 20.9836 120.25 21.9483 121.371 22.5643C122.496 23.1842 124.261 23.4942 126.674 23.4942H139.341C139.977 23.4942 140.295 23.7111 140.295 24.1451C140.295 24.4163 140.229 24.6991 140.097 25.0013L139.996 25.1989C139.527 26.3379 138.84 26.9075 137.932 26.9075H117.879C117.142 26.9075 116.638 27.26 116.37 27.9613L112.751 36.4462C112.483 37.1474 112.685 37.5 113.356 37.5H138.891C140.597 37.5 142.048 37.3993 143.236 37.1978C144.427 36.9963 145.466 36.6283 146.355 36.0936C147.239 35.5589 148.003 34.8461 148.64 33.9588C149.276 33.0716 149.881 31.9597 150.451 30.623L154.42 21.3361C155.025 19.9297 155.324 18.7442 155.324 17.7717C155.324 15.1953 153.148 13.9051 148.791 13.9051H135.62C134.984 13.9051 134.666 13.6726 134.666 13.2038C134.666 13.0024 134.751 12.7002 134.918 12.3011L135.019 12.0996C135.453 11.0303 136.124 10.4918 137.028 10.4918H155.627C156.364 10.4918 156.868 10.1431 157.136 9.43796L160.705 1.0577C160.806 0.786497 160.852 0.588904 160.852 0.453301C160.852 0.1511 160.604 0 160.1 0Z" fill="#F47521"/>
<path d="M197.246 0H167.94C167.269 0 166.768 0.352567 166.435 1.0577L151.406 36.4462C151.138 37.1474 151.336 37.5 152.007 37.5H181.662C182.399 37.5 182.903 37.1474 183.171 36.4462L186.79 27.9613C187.058 27.26 186.856 26.9075 186.185 26.9075H168.091L169.651 23.2423H185.886C186.589 23.2423 187.074 22.8898 187.341 22.1885L190.309 15.2108C190.41 14.9434 190.46 14.742 190.46 14.6102C190.46 14.308 190.208 14.1569 189.704 14.1569H173.468L175.028 10.4918H192.772C193.506 10.4918 194.01 10.1431 194.278 9.43796L197.847 1.0577C197.948 0.786497 197.998 0.588904 197.998 0.453301C197.998 0.1511 197.746 0 197.246 0Z" fill="#F47521"/>
</svg>
