<svg width="161" height="1146" viewBox="0 0 161 1146" fill="none" xmlns="http://www.w3.org/2000/svg">
<g opacity="0.3">
<path d="M4.17114 378.809C1.86899 378.809 0 380.678 0 382.98C0 385.282 1.86899 387.151 4.17114 387.151C6.47328 387.151 8.34227 385.282 8.34227 382.98C8.34227 380.678 6.47328 378.809 4.17114 378.809Z" fill="white"/>
<path d="M4.17114 454.675C1.86899 454.675 0 456.544 0 458.846C0 461.148 1.86899 463.017 4.17114 463.017C6.47328 463.017 8.34227 461.148 8.34227 458.846C8.34227 456.544 6.47328 454.675 4.17114 454.675Z" fill="white"/>
<path d="M4.17114 530.542C1.86899 530.542 0 532.411 0 534.713C0 537.015 1.86899 538.884 4.17114 538.884C6.47328 538.884 8.34227 537.015 8.34227 534.713C8.34227 532.411 6.47328 530.542 4.17114 530.542Z" fill="white"/>
<path d="M80.0377 387.151C82.3414 387.151 84.2089 385.283 84.2089 382.98C84.2089 380.676 82.3414 378.809 80.0377 378.809C77.7341 378.809 75.8666 380.676 75.8666 382.98C75.8666 385.283 77.7341 387.151 80.0377 387.151Z" fill="white"/>
<path d="M80.0377 454.675C77.7356 454.675 75.8666 456.544 75.8666 458.846C75.8666 461.148 77.7356 463.017 80.0377 463.017C82.3399 463.017 84.2089 461.148 84.2089 458.846C84.2089 456.544 82.3399 454.675 80.0377 454.675Z" fill="white"/>
<path d="M80.0377 530.542C77.7356 530.542 75.8666 532.411 75.8666 534.713C75.8666 537.015 77.7356 538.884 80.0377 538.884C82.3399 538.884 84.2089 537.015 84.2089 534.713C84.2089 532.411 82.3399 530.542 80.0377 530.542Z" fill="white"/>
<path d="M155.904 387.151C158.208 387.151 160.075 385.283 160.075 382.98C160.075 380.676 158.208 378.809 155.904 378.809C153.601 378.809 151.733 380.676 151.733 382.98C151.733 385.283 153.601 387.151 155.904 387.151Z" fill="white"/>
<path d="M155.904 454.675C153.602 454.675 151.733 456.544 151.733 458.846C151.733 461.148 153.602 463.017 155.904 463.017C158.206 463.017 160.075 461.148 160.075 458.846C160.075 456.544 158.206 454.675 155.904 454.675Z" fill="white"/>
<path d="M155.904 530.542C153.602 530.542 151.733 532.411 151.733 534.713C151.733 537.015 153.602 538.884 155.904 538.884C158.206 538.884 160.075 537.015 160.075 534.713C160.075 532.411 158.206 530.542 155.904 530.542Z" fill="white"/>
<path d="M4.17114 606.408C1.86899 606.408 0 608.277 0 610.579C0 612.882 1.86899 614.751 4.17114 614.751C6.47328 614.751 8.34227 612.882 8.34227 610.579C8.34227 608.277 6.47328 606.408 4.17114 606.408Z" fill="white"/>
<path d="M4.17114 682.275C1.86899 682.275 0 684.144 0 686.446C0 688.748 1.86899 690.617 4.17114 690.617C6.47328 690.617 8.34227 688.748 8.34227 686.446C8.34227 684.144 6.47328 682.275 4.17114 682.275Z" fill="white"/>
<path d="M4.17114 758.141C1.86899 758.141 0 760.01 0 762.313C0 764.615 1.86899 766.484 4.17114 766.484C6.47328 766.484 8.34227 764.615 8.34227 762.313C8.34227 760.01 6.47328 758.141 4.17114 758.141Z" fill="white"/>
<path d="M80.0377 606.408C77.7356 606.408 75.8666 608.277 75.8666 610.579C75.8666 612.882 77.7356 614.751 80.0377 614.751C82.3399 614.751 84.2089 612.882 84.2089 610.579C84.2089 608.277 82.3399 606.408 80.0377 606.408Z" fill="white"/>
<path d="M80.0377 682.275C77.7356 682.275 75.8666 684.144 75.8666 686.446C75.8666 688.748 77.7356 690.617 80.0377 690.617C82.3399 690.617 84.2089 688.748 84.2089 686.446C84.2089 684.144 82.3399 682.275 80.0377 682.275Z" fill="white"/>
<path d="M80.0377 758.141C77.7356 758.141 75.8666 760.01 75.8666 762.313C75.8666 764.615 77.7356 766.484 80.0377 766.484C82.3399 766.484 84.2089 764.615 84.2089 762.313C84.2089 760.01 82.3399 758.141 80.0377 758.141Z" fill="white"/>
<path d="M155.904 606.408C153.602 606.408 151.733 608.277 151.733 610.579C151.733 612.882 153.602 614.751 155.904 614.751C158.206 614.751 160.075 612.882 160.075 610.579C160.075 608.277 158.206 606.408 155.904 606.408Z" fill="white"/>
<path d="M155.904 682.275C153.602 682.275 151.733 684.144 151.733 686.446C151.733 688.748 153.602 690.617 155.904 690.617C158.206 690.617 160.075 688.748 160.075 686.446C160.075 684.144 158.206 682.275 155.904 682.275Z" fill="white"/>
<path d="M155.904 758.141C153.602 758.141 151.733 760.01 151.733 762.313C151.733 764.615 153.602 766.484 155.904 766.484C158.206 766.484 160.075 764.615 160.075 762.313C160.075 760.01 158.206 758.141 155.904 758.141Z" fill="white"/>
<path d="M4.17114 834C1.86899 834 0 835.869 0 838.171C0 840.473 1.86899 842.342 4.17114 842.342C6.47328 842.342 8.34227 840.473 8.34227 838.171C8.34227 835.869 6.47328 834 4.17114 834Z" fill="white"/>
<path d="M4.17114 909.867C1.86899 909.867 0 911.736 0 914.038C0 916.34 1.86899 918.209 4.17114 918.209C6.47328 918.209 8.34227 916.34 8.34227 914.038C8.34227 911.736 6.47328 909.867 4.17114 909.867Z" fill="white"/>
<path d="M4.17114 985.733C1.86899 985.733 0 987.602 0 989.904C0 992.206 1.86899 994.075 4.17114 994.075C6.47328 994.075 8.34227 992.206 8.34227 989.904C8.34227 987.602 6.47328 985.733 4.17114 985.733Z" fill="white"/>
<path d="M80.0377 834C77.7356 834 75.8666 835.869 75.8666 838.171C75.8666 840.473 77.7356 842.342 80.0377 842.342C82.3399 842.342 84.2089 840.473 84.2089 838.171C84.2089 835.869 82.3399 834 80.0377 834Z" fill="white"/>
<path d="M80.0377 909.867C77.7356 909.867 75.8666 911.736 75.8666 914.038C75.8666 916.34 77.7356 918.209 80.0377 918.209C82.3399 918.209 84.2089 916.34 84.2089 914.038C84.2089 911.736 82.3399 909.867 80.0377 909.867Z" fill="white"/>
<path d="M80.0377 985.733C77.7356 985.733 75.8666 987.602 75.8666 989.904C75.8666 992.206 77.7356 994.075 80.0377 994.075C82.3399 994.075 84.2089 992.206 84.2089 989.904C84.2089 987.602 82.3399 985.733 80.0377 985.733Z" fill="white"/>
<path d="M155.904 834C153.602 834 151.733 835.869 151.733 838.171C151.733 840.473 153.602 842.342 155.904 842.342C158.206 842.342 160.075 840.473 160.075 838.171C160.075 835.869 158.206 834 155.904 834Z" fill="white"/>
<path d="M155.904 909.867C153.602 909.867 151.733 911.736 151.733 914.038C151.733 916.34 153.602 918.209 155.904 918.209C158.206 918.209 160.075 916.34 160.075 914.038C160.075 911.736 158.206 909.867 155.904 909.867Z" fill="white"/>
<path d="M155.904 985.733C153.602 985.733 151.733 987.602 151.733 989.904C151.733 992.206 153.602 994.075 155.904 994.075C158.206 994.075 160.075 992.206 160.075 989.904C160.075 987.602 158.206 985.733 155.904 985.733Z" fill="white"/>
<path d="M4.17114 1061.6C1.86899 1061.6 0 1063.47 0 1065.77C0 1068.07 1.86899 1069.94 4.17114 1069.94C6.47328 1069.94 8.34227 1068.07 8.34227 1065.77C8.34227 1063.47 6.47328 1061.6 4.17114 1061.6Z" fill="white"/>
<path d="M4.17114 1137.47C1.86899 1137.47 0 1139.34 0 1141.64C0 1143.94 1.86899 1145.81 4.17114 1145.81C6.47328 1145.81 8.34227 1143.94 8.34227 1141.64C8.34227 1139.34 6.47328 1137.47 4.17114 1137.47Z" fill="white"/>
<path d="M80.0377 1069.94C82.3414 1069.94 84.2089 1068.07 84.2089 1065.77C84.2089 1063.47 82.3414 1061.6 80.0377 1061.6C77.7341 1061.6 75.8666 1063.47 75.8666 1065.77C75.8666 1068.07 77.7341 1069.94 80.0377 1069.94Z" fill="white"/>
<path d="M80.0377 1137.47C77.7356 1137.47 75.8666 1139.34 75.8666 1141.64C75.8666 1143.94 77.7356 1145.81 80.0377 1145.81C82.3399 1145.81 84.2089 1143.94 84.2089 1141.64C84.2089 1139.34 82.3399 1137.47 80.0377 1137.47Z" fill="white"/>
<path d="M155.904 1069.94C158.208 1069.94 160.075 1068.07 160.075 1065.77C160.075 1063.47 158.208 1061.6 155.904 1061.6C153.601 1061.6 151.733 1063.47 151.733 1065.77C151.733 1068.07 153.601 1069.94 155.904 1069.94Z" fill="white"/>
<path d="M155.904 1137.47C153.602 1137.47 151.733 1139.34 151.733 1141.64C151.733 1143.94 153.602 1145.81 155.904 1145.81C158.206 1145.81 160.075 1143.94 160.075 1141.64C160.075 1139.34 158.206 1137.47 155.904 1137.47Z" fill="white"/>
</g>
<g opacity="0.3">
<path d="M4.17114 0C1.86899 0 0 1.869 0 4.17114C0 6.47329 1.86899 8.34229 4.17114 8.34229C6.47328 8.34229 8.34227 6.47329 8.34227 4.17114C8.34227 1.869 6.47328 0 4.17114 0Z" fill="white"/>
<path d="M4.17114 75.8666C1.86899 75.8666 0 77.7356 0 80.0377C0 82.3399 1.86899 84.2089 4.17114 84.2089C6.47328 84.2089 8.34227 82.3399 8.34227 80.0377C8.34227 77.7356 6.47328 75.8666 4.17114 75.8666Z" fill="white"/>
<path d="M4.17114 151.733C1.86899 151.733 0 153.602 0 155.904C0 158.206 1.86899 160.075 4.17114 160.075C6.47328 160.075 8.34227 158.206 8.34227 155.904C8.34227 153.602 6.47328 151.733 4.17114 151.733Z" fill="white"/>
<path d="M80.0377 0C77.7356 0 75.8666 1.869 75.8666 4.17114C75.8666 6.47329 77.7356 8.34229 80.0377 8.34229C82.3399 8.34229 84.2089 6.47329 84.2089 4.17114C84.2089 1.869 82.3399 0 80.0377 0Z" fill="white"/>
<path d="M80.0377 75.8666C77.7356 75.8666 75.8666 77.7356 75.8666 80.0377C75.8666 82.3399 77.7356 84.2089 80.0377 84.2089C82.3399 84.2089 84.2089 82.3399 84.2089 80.0377C84.2089 77.7356 82.3399 75.8666 80.0377 75.8666Z" fill="white"/>
<path d="M80.0377 151.733C77.7356 151.733 75.8666 153.602 75.8666 155.904C75.8666 158.206 77.7356 160.075 80.0377 160.075C82.3399 160.075 84.2089 158.206 84.2089 155.904C84.2089 153.602 82.3399 151.733 80.0377 151.733Z" fill="white"/>
<path d="M155.904 0C153.602 0 151.733 1.869 151.733 4.17114C151.733 6.47329 153.602 8.34229 155.904 8.34229C158.206 8.34229 160.075 6.47329 160.075 4.17114C160.075 1.869 158.206 0 155.904 0Z" fill="white"/>
<path d="M155.904 75.8666C153.602 75.8666 151.733 77.7356 151.733 80.0377C151.733 82.3399 153.602 84.2089 155.904 84.2089C158.206 84.2089 160.075 82.3399 160.075 80.0377C160.075 77.7356 158.206 75.8666 155.904 75.8666Z" fill="white"/>
<path d="M155.904 151.733C153.602 151.733 151.733 153.602 151.733 155.904C151.733 158.206 153.602 160.075 155.904 160.075C158.206 160.075 160.075 158.206 160.075 155.904C160.075 153.602 158.206 151.733 155.904 151.733Z" fill="white"/>
<path d="M4.17114 227.6C1.86899 227.6 0 229.469 0 231.771C0 234.073 1.86899 235.942 4.17114 235.942C6.47328 235.942 8.34227 234.073 8.34227 231.771C8.34227 229.469 6.47328 227.6 4.17114 227.6Z" fill="white"/>
<path d="M4.17114 303.466C1.86899 303.466 0 305.335 0 307.637C0 309.94 1.86899 311.809 4.17114 311.809C6.47328 311.809 8.34227 309.94 8.34227 307.637C8.34227 305.335 6.47328 303.466 4.17114 303.466Z" fill="white"/>
<path d="M80.0377 235.942L84.2089 231.771C84.2089 231.771 82.3414 227.6 80.0377 227.6C77.7341 227.6 75.8666 229.467 75.8666 231.771C75.8666 234.074 77.7341 235.942 80.0377 235.942Z" fill="white"/>
<path d="M80.0377 303.466C77.7356 303.466 75.8666 305.335 75.8666 307.637C75.8666 309.94 80.0377 311.809 80.0377 311.809L84.2089 307.637C84.2089 305.335 82.3399 303.466 80.0377 303.466Z" fill="white"/>
<path d="M155.904 235.942C158.208 235.942 160.075 234.074 160.075 231.771C160.075 229.467 158.208 227.6 155.904 227.6C153.601 227.6 151.733 229.467 151.733 231.771C151.733 234.074 153.601 235.942 155.904 235.942Z" fill="white"/>
<path d="M155.904 303.466C153.602 303.466 151.733 305.335 151.733 307.637C151.733 309.94 153.602 311.809 155.904 311.809C158.206 311.809 160.075 309.94 160.075 307.637C160.075 305.335 158.206 303.466 155.904 303.466Z" fill="white"/>
</g>
</svg>
